<svg width="169" height="48" viewBox="0 0 169 48" fill="none" xmlns="http://www.w3.org/2000/svg">
<path d="M35.24 27.88C36.088 27.88 37.048 27.72 38.12 27.4V25.96H34.64C34.4 25.96 34.2 26.04 34.04 26.2C33.88 26.36 33.8 26.56 33.8 26.8V27.04C33.8 27.28 33.88 27.48 34.04 27.64C34.2 27.8 34.4 27.88 34.64 27.88H35.24ZM30.8 18.52C33.728 18.2 36.368 18.04 38.72 18.04C39.808 18.04 40.68 18.368 41.336 19.024C41.992 19.68 42.32 20.552 42.32 21.64V31H38.6L38.36 29.8C37.608 30.296 36.832 30.664 36.032 30.904C35.248 31.128 34.584 31.24 34.04 31.24H33.2C32.112 31.24 31.24 30.912 30.584 30.256C29.928 29.6 29.6 28.728 29.6 27.64V26.56C29.6 25.472 29.928 24.6 30.584 23.944C31.24 23.288 32.112 22.96 33.2 22.96H38.12V22C38.12 21.76 38.04 21.56 37.88 21.4C37.72 21.24 37.52 21.16 37.28 21.16C36.24 21.16 35.088 21.208 33.824 21.304C32.576 21.4 31.568 21.472 30.8 21.52V18.52ZM50.9534 31C49.8814 31.16 48.8574 31.24 47.8814 31.24C46.9214 31.24 46.1134 30.912 45.4574 30.256C44.8014 29.6 44.4734 28.728 44.4734 27.64V14.2H48.6734V27.04C48.6734 27.28 48.7534 27.48 48.9134 27.64C49.0734 27.8 49.2734 27.88 49.5134 27.88H50.9534V31ZM57.5497 21.04C56.9097 21.04 56.5897 21.36 56.5897 22V23.32H60.6697V22C60.6697 21.36 60.3497 21.04 59.7097 21.04H57.5497ZM64.3897 30.76C61.3017 31.08 58.5017 31.24 55.9897 31.24C54.9017 31.24 54.0297 30.912 53.3737 30.256C52.7177 29.6 52.3897 28.728 52.3897 27.64V21.88C52.3897 20.68 52.7257 19.744 53.3977 19.072C54.0857 18.384 55.0297 18.04 56.2297 18.04H61.0297C62.2297 18.04 63.1657 18.384 63.8377 19.072C64.5257 19.744 64.8697 20.68 64.8697 21.88V26.32H56.5897V27.28C56.5897 27.52 56.6697 27.72 56.8297 27.88C56.9897 28.04 57.1897 28.12 57.4297 28.12C59.0137 28.12 61.3337 28 64.3897 27.76V30.76Z" fill="white"/>
<path d="M1.56 31.2C8.86667 31.6 13.8133 31.8 16.4 31.8C17.0133 31.8 17.4933 31.6267 17.84 31.28C18.2133 30.9067 18.4 30.4133 18.4 29.8V26.2H9.2C6.4 26.2 4.36 25.5733 3.08 24.32C1.82667 23.04 1.2 21 1.2 18.2V17C1.2 14.2 1.82667 12.1733 3.08 10.92C4.36 9.64 6.4 9 9.2 9H23.24V14.6H10.8C9.2 14.6 8.4 15.4 8.4 17V17.8C8.4 19.4 9.2 20.2 10.8 20.2H18C20.6133 20.2 22.5333 20.8133 23.76 22.04C24.9867 23.2667 25.6 25.1867 25.6 27.8V29.8C25.6 32.4133 24.9867 34.3333 23.76 35.56C22.5333 36.7867 20.6133 37.4 18 37.4C16.64 37.4 15.2 37.3733 13.68 37.32L10 37.16C7.28 37.0267 4.46667 36.84 1.56 36.6V31.2Z" fill="white"/>
<path d="M107.08 32C105.528 32.16 104.008 32.24 102.52 32.24C101.432 32.24 100.56 31.912 99.904 31.256C99.248 30.6 98.92 29.728 98.92 28.64V22.52H97.48V19.28H98.92L99.4 16.4H103.12V19.28H106.12V22.52H103.12V28.04C103.12 28.28 103.2 28.48 103.36 28.64C103.52 28.8 103.72 28.88 103.96 28.88H107.08V32ZM116.09 22.76C115.082 22.76 114.042 23 112.97 23.48V32H108.77V19.28H112.49L112.73 20.84C114.106 19.64 115.546 19.04 117.05 19.04H118.13V22.76H116.09ZM124.261 22.04C123.621 22.04 123.301 22.36 123.301 23V24.32H127.381V23C127.381 22.36 127.061 22.04 126.421 22.04H124.261ZM131.101 31.76C128.013 32.08 125.213 32.24 122.701 32.24C121.613 32.24 120.741 31.912 120.085 31.256C119.429 30.6 119.101 29.728 119.101 28.64V22.88C119.101 21.68 119.437 20.744 120.109 20.072C120.797 19.384 121.741 19.04 122.941 19.04H127.741C128.941 19.04 129.877 19.384 130.549 20.072C131.237 20.744 131.581 21.68 131.581 22.88V27.32H123.301V28.28C123.301 28.52 123.381 28.72 123.541 28.88C123.701 29.04 123.901 29.12 124.141 29.12C125.725 29.12 128.045 29 131.101 28.76V31.76ZM138.771 28.88C139.619 28.88 140.579 28.72 141.651 28.4V26.96H138.171C137.931 26.96 137.731 27.04 137.571 27.2C137.411 27.36 137.331 27.56 137.331 27.8V28.04C137.331 28.28 137.411 28.48 137.571 28.64C137.731 28.8 137.931 28.88 138.171 28.88H138.771ZM134.331 19.52C137.259 19.2 139.899 19.04 142.251 19.04C143.339 19.04 144.211 19.368 144.867 20.024C145.523 20.68 145.851 21.552 145.851 22.64V32H142.131L141.891 30.8C141.139 31.296 140.363 31.664 139.563 31.904C138.779 32.128 138.115 32.24 137.571 32.24H136.731C135.643 32.24 134.771 31.912 134.115 31.256C133.459 30.6 133.131 29.728 133.131 28.64V27.56C133.131 26.472 133.459 25.6 134.115 24.944C134.771 24.288 135.643 23.96 136.731 23.96H141.651V23C141.651 22.76 141.571 22.56 141.411 22.4C141.251 22.24 141.051 22.16 140.811 22.16C139.771 22.16 138.619 22.208 137.355 22.304C136.107 22.4 135.099 22.472 134.331 22.52V19.52ZM156.525 19.04C157.821 19.04 158.821 19.52 159.525 20.48C160.261 19.984 161.053 19.624 161.901 19.4C162.765 19.16 163.533 19.04 164.205 19.04H164.445C165.533 19.04 166.405 19.368 167.061 20.024C167.717 20.68 168.045 21.552 168.045 22.64V32H163.845V23.36C163.845 23.12 163.765 22.92 163.605 22.76C163.445 22.6 163.245 22.52 163.005 22.52H162.885C162.165 22.52 161.245 22.68 160.125 23V32H155.925V23.36C155.925 23.12 155.845 22.92 155.685 22.76C155.525 22.6 155.325 22.52 155.085 22.52H154.965C154.245 22.52 153.325 22.68 152.205 23V32H148.005V19.28H151.725L151.965 20.48C152.717 19.984 153.485 19.624 154.269 19.4C155.069 19.16 155.741 19.04 156.285 19.04H156.525Z" fill="white"/>
<path d="M69.56 31.2C76.8667 31.6 81.8133 31.8 84.4 31.8C85.0133 31.8 85.4933 31.6267 85.84 31.28C86.2133 30.9067 86.4 30.4133 86.4 29.8V26.2H77.2C74.4 26.2 72.36 25.5733 71.08 24.32C69.8267 23.04 69.2 21 69.2 18.2V17C69.2 14.2 69.8267 12.1733 71.08 10.92C72.36 9.64 74.4 9 77.2 9H91.24V14.6H78.8C77.2 14.6 76.4 15.4 76.4 17V17.8C76.4 19.4 77.2 20.2 78.8 20.2H86C88.6133 20.2 90.5333 20.8133 91.76 22.04C92.9867 23.2667 93.6 25.1867 93.6 27.8V29.8C93.6 32.4133 92.9867 34.3333 91.76 35.56C90.5333 36.7867 88.6133 37.4 86 37.4C84.64 37.4 83.2 37.3733 81.68 37.32L78 37.16C75.28 37.0267 72.4667 36.84 69.56 36.6V31.2Z" fill="white"/>
</svg>
