<svg width="54" height="52" viewBox="0 0 54 52" fill="none" xmlns="http://www.w3.org/2000/svg">
<path d="M1.56 31.2C8.86667 31.6 13.8133 31.8 16.4 31.8C17.0133 31.8 17.4933 31.6267 17.84 31.28C18.2133 30.9067 18.4 30.4133 18.4 29.8V26.2H9.2C6.4 26.2 4.36 25.5733 3.08 24.32C1.82667 23.04 1.2 21 1.2 18.2V17C1.2 14.2 1.82667 12.1733 3.08 10.92C4.36 9.64 6.4 9 9.2 9H23.24V14.6H10.8C9.2 14.6 8.4 15.4 8.4 17V17.8C8.4 19.4 9.2 20.2 10.8 20.2H18C20.6133 20.2 22.5333 20.8133 23.76 22.04C24.9867 23.2667 25.6 25.1867 25.6 27.8V29.8C25.6 32.4133 24.9867 34.3333 23.76 35.56C22.5333 36.7867 20.6133 37.4 18 37.4C16.64 37.4 15.2 37.3733 13.68 37.32L10 37.16C7.28 37.0267 4.46667 36.84 1.56 36.6V31.2Z" fill="#2A3950"/>
<path d="M28.56 35.2C35.8667 35.6 40.8133 35.8 43.4 35.8C44.0133 35.8 44.4933 35.6267 44.84 35.28C45.2133 34.9067 45.4 34.4133 45.4 33.8V30.2H36.2C33.4 30.2 31.36 29.5733 30.08 28.32C28.8267 27.04 28.2 25 28.2 22.2V21C28.2 18.2 28.8267 16.1733 30.08 14.92C31.36 13.64 33.4 13 36.2 13H50.24V18.6H37.8C36.2 18.6 35.4 19.4 35.4 21V21.8C35.4 23.4 36.2 24.2 37.8 24.2H45C47.6133 24.2 49.5333 24.8133 50.76 26.04C51.9867 27.2667 52.6 29.1867 52.6 31.8V33.8C52.6 36.4133 51.9867 38.3333 50.76 39.56C49.5333 40.7867 47.6133 41.4 45 41.4C43.64 41.4 42.2 41.3733 40.68 41.32L37 41.16C34.28 41.0267 31.4667 40.84 28.56 40.6V35.2Z" fill="#2A3950"/>
</svg>
